<?xml version="1.0" encoding="utf-8"?>
<!-- Generator: Adobe Illustrator 21.1.0, SVG Export Plug-In . SVG Version: 6.00 Build 0)  -->
<svg version="1.1" id="Layer_1" xmlns="http://www.w3.org/2000/svg" xmlns:xlink="http://www.w3.org/1999/xlink" x="0px" y="0px"
	 viewBox="0 0 55.3 55.3" style="enable-background:new 0 0 55.3 55.3;" xml:space="preserve">
<style type="text/css">
	.st0{fill:#FFFFFF;}
</style>
<g>
	<g>
		<path class="st0" d="M17,41.6c0.3,0,0.5-0.1,0.7-0.3c0.2-0.2,0.3-0.4,0.3-0.7c0-0.3-0.1-0.5-0.3-0.7c-0.4-0.4-1-0.3-1.4,0
			c-0.2,0.2-0.3,0.4-0.3,0.7c0,0.3,0.1,0.5,0.3,0.7C16.5,41.5,16.7,41.6,17,41.6z"/>
		<path class="st0" d="M30.5,39.7h2c0.5,0,1-0.4,1-1c0-0.5-0.4-1-1-1h-2c-0.5,0-1,0.4-1,1C29.6,39.3,30,39.7,30.5,39.7z"/>
		<path class="st0" d="M30.5,33.9h2c0.5,0,1-0.4,1-1c0-0.5-0.4-1-1-1h-2c-0.5,0-1,0.4-1,1C29.6,33.5,30,33.9,30.5,33.9z"/>
		<path class="st0" d="M38.3,39.7h1.9c0.5,0,1-0.4,1-1c0-0.5-0.4-1-1-1h-1.9c-0.5,0-1,0.4-1,1C37.3,39.3,37.8,39.7,38.3,39.7z"/>
		<path class="st0" d="M38.3,45.5h1.9c0.5,0,1-0.4,1-1c0-0.5-0.4-1-1-1h-1.9c-0.5,0-1,0.4-1,1C37.3,45.1,37.8,45.5,38.3,45.5z"/>
		<path class="st0" d="M38.3,33.9h1.9c0.5,0,1-0.4,1-1c0-0.5-0.4-1-1-1h-1.9c-0.5,0-1,0.4-1,1C37.3,33.5,37.8,33.9,38.3,33.9z"/>
		<path class="st0" d="M50.1,29.1L21.8,18.5c-0.5-0.2-1.1,0.1-1.2,0.6c-0.2,0.5,0.1,1.1,0.6,1.2l2.6,1v9.9L5.2,36
			c-0.5,0.1-0.8,0.7-0.7,1.2c0.1,0.4,0.5,0.7,0.9,0.7c0.1,0,0.2,0,0.2,0l2.6-0.7v15.1c0,0.5,0.4,1,1,1h3.9h7.7h3.9h5.8h3.9H46
			c0.5,0,1-0.4,1-1V30l2.5,0.9c0.1,0,0.2,0.1,0.3,0.1c0.4,0,0.8-0.2,0.9-0.6C50.9,29.8,50.6,29.3,50.1,29.1z M10.2,36.7l13.6-3.5
			v18.1h-1.9v-6.8c0-0.5-0.4-1-1-1h-7.7c-0.5,0-1,0.4-1,1v6.8h-1.9V36.7z M14.1,51.3v-5.8h5.8v5.8H14.1z M31.5,51.3v-5.8h1.9v5.8
			H31.5z M45.1,29.3v22.1h-9.7v-6.8c0-0.5-0.4-1-1-1h-3.9c-0.5,0-1,0.4-1,1v6.8h-3.9V31.9v-9.9l0,0L45.1,29.3z"/>
	</g>
</g>
</svg>
