<?xml version="1.0" encoding="utf-8"?>
<!-- Generator: Adobe Illustrator 21.1.0, SVG Export Plug-In . SVG Version: 6.00 Build 0)  -->
<svg version="1.1" id="Layer_1" xmlns="http://www.w3.org/2000/svg" xmlns:xlink="http://www.w3.org/1999/xlink" x="0px" y="0px"
	 viewBox="0 0 55.3 55.3" style="enable-background:new 0 0 55.3 55.3;" xml:space="preserve">
<style type="text/css">
	.st0{fill:#FFFFFF;}
</style>
<g>
	<g>
		<path class="st0" d="M10.3,46v-5.1c0-0.5-0.4-1-1-1c-0.5,0-1,0.4-1,1V46c-1,0.2-1.7,1-1.7,1.9l-0.6,3.3c0,1.2,0.9,2.1,2.1,2.1h2.3
			c1.2,0,2.1-0.9,2.1-2.3L12,48C12,47,11.3,46.2,10.3,46z M10.4,51.3H8.2c-0.1,0-0.1,0-0.2,0c0,0,0,0,0,0L8.5,48
			c0-0.1,0.1-0.2,0.2-0.2h1.2c0.1,0,0.2,0.1,0.2,0.3l0.5,2.9C10.6,51.2,10.5,51.3,10.4,51.3z"/>
		<path class="st0" d="M50.6,36.2l-5.9-13.4c-0.2-0.4-0.5-0.6-0.9-0.6H12.8c-0.4,0-0.7,0.2-0.8,0.5L4.5,36.3c-0.2,0.3-0.2,0.7,0,1
			c0.2,0.3,0.5,0.5,0.8,0.5h11.9L15,47.8c0,0.1,0,0.1,0,0.2c0,3.8,6.6,5.2,12.7,5.2c6.1,0,12.7-1.4,12.7-5.2c0-0.1,0-0.1,0-0.2
			l-2.3-10.1h11.8c0,0,0,0,0,0c0.5,0,1-0.4,1-1C50.9,36.6,50.8,36.3,50.6,36.2z M38.4,48.1c-0.1,1.6-4.1,3.2-10.8,3.2
			c-6.6,0-10.6-1.6-10.8-3.2l2.4-10.4h16.8L38.4,48.1z M7,35.8l3.2-5.8H27c0.5,0,1-0.4,1-1s-0.4-1-1-1H11.2l2.1-3.9h29.9l5.1,11.7H7
			z"/>
	</g>
</g>
</svg>
