<?xml version="1.0" encoding="utf-8"?>
<!-- Generator: Adobe Illustrator 21.1.0, SVG Export Plug-In . SVG Version: 6.00 Build 0)  -->
<svg version="1.1" id="Layer_1" xmlns="http://www.w3.org/2000/svg" xmlns:xlink="http://www.w3.org/1999/xlink" x="0px" y="0px"
	 viewBox="0 0 55.3 55.3" style="enable-background:new 0 0 55.3 55.3;" xml:space="preserve">
<style type="text/css">
	.st0{fill:#FFFFFF;}
</style>
<path class="st0" d="M50.4,19.8c0-3.4-2.8-6.2-6.2-6.2c-3.4,0-6.2,2.8-6.2,6.2c0,3.1,2.3,5.6,5.2,6.1v14.7c0,5.8-4.9,10.7-10.8,10.7
	h-1.2c-6,0-11.2-5-11.2-10.7V37c7.3-0.7,13.3-10.1,13.3-17.9c0-4.9-2.6-8.2-7.5-9.6c-0.3-1-1.2-1.7-2.3-1.7c-1.3,0-2.4,1.1-2.4,2.4
	c0,1.3,1.1,2.4,2.4,2.4c0.9,0,1.6-0.5,2-1.2c3.9,1.2,5.8,3.7,5.8,7.7c0,6.7-5.3,15.2-11.4,15.9c0-0.5-0.4-0.9-1-0.9
	c-0.5,0-0.9,0.4-1,0.9C12,34.2,6.8,25.9,6.8,19.2c0-4,1.9-6.5,5.8-7.7c0.4,0.7,1.2,1.2,2,1.2c1.3,0,2.4-1.1,2.4-2.4
	c0-1.3-1.1-2.4-2.4-2.4c-1.1,0-2,0.7-2.3,1.7c-4.9,1.4-7.5,4.7-7.5,9.6c0,7.7,6,17,13.2,17.8v3.6c0,6.7,6.1,12.6,13.2,12.6h1.2
	c6.9,0,12.7-5.8,12.7-12.6V25.9C48.1,25.4,50.4,22.9,50.4,19.8z M23.1,10.3c0-0.3,0.2-0.5,0.5-0.5c0.3,0,0.5,0.2,0.5,0.5
	C24.1,10.8,23.1,10.8,23.1,10.3z M14.6,9.8c0.3,0,0.5,0.2,0.5,0.5c0,0.5-1,0.5-1,0C14.1,10,14.4,9.8,14.6,9.8z M44.2,20.9
	c-0.6,0-1.1-0.5-1.1-1.1c0-0.6,0.5-1.1,1.1-1.1c0.6,0,1.1,0.5,1.1,1.1C45.3,20.4,44.8,20.9,44.2,20.9z M45.2,23.9v-1.3
	c1.2-0.4,2-1.5,2-2.8c0-1.7-1.4-3-3-3c-1.7,0-3,1.4-3,3c0,1.3,0.9,2.4,2.1,2.8v1.3c-1.9-0.4-3.3-2.1-3.3-4.1c0-2.3,1.9-4.2,4.2-4.2
	c2.3,0,4.2,1.9,4.2,4.2C48.4,21.8,47,23.5,45.2,23.9z"/>
</svg>
