<?xml version="1.0" encoding="utf-8"?>
<!-- Generator: Adobe Illustrator 21.1.0, SVG Export Plug-In . SVG Version: 6.00 Build 0)  -->
<svg version="1.1" id="Layer_1" xmlns="http://www.w3.org/2000/svg" xmlns:xlink="http://www.w3.org/1999/xlink" x="0px" y="0px"
	 viewBox="0 0 100 37" style="enable-background:new 0 0 100 37;" xml:space="preserve">
<style type="text/css">
	.st0{fill:#1E1E28;}
	.st1{fill:#8C7864;}
	.st2{fill:#E6E6E6;}
	.st3{fill:#AA8C6E;}
</style>
<g>
	<g>
		<path class="st0" d="M81,13.2c-0.2-0.4-0.4-0.9-0.7-1.3c-0.3-0.4-0.6-0.8-0.9-1.1c-0.3-0.3-0.7-0.6-1.1-0.9
			c-0.4-0.3-0.8-0.5-1.3-0.7c-0.4-0.2-0.9-0.3-1.4-0.4c-1-0.2-2-0.2-3,0c-0.5,0.1-0.9,0.2-1.4,0.4c-0.4,0.2-0.9,0.4-1.3,0.7
			c-0.4,0.3-0.8,0.6-1.1,0.9c-0.3,0.3-0.6,0.7-0.9,1.1c-0.3,0.4-0.5,0.8-0.7,1.3c-0.2,0.4-0.3,0.9-0.4,1.4c-0.1,0.5-0.2,1-0.2,1.5
			c0,0.5,0.1,1,0.2,1.5c0.1,0.5,0.2,0.9,0.4,1.4c0.2,0.4,0.4,0.9,0.7,1.3c0.3,0.4,0.6,0.8,0.9,1.1c0.3,0.3,0.7,0.6,1.1,0.9
			c0.4,0.3,0.8,0.5,1.3,0.7c0.4,0.2,0.9,0.3,1.4,0.4c0.5,0.1,1,0.2,1.5,0.2c0.5,0,1-0.1,1.5-0.2c0.5-0.1,0.9-0.2,1.4-0.4
			c0.4-0.2,0.9-0.4,1.3-0.7c0.4-0.3,0.8-0.6,1.1-0.9c0.3-0.3,0.6-0.7,0.9-1.1l0.1-0.2l-1.5-1l-0.1,0.2c-0.2,0.3-0.4,0.6-0.7,0.8
			c-0.3,0.3-0.5,0.5-0.8,0.7c-0.3,0.2-0.6,0.4-1,0.5c-0.3,0.1-0.7,0.3-1.1,0.3c-0.7,0.2-1.5,0.2-2.3,0c-0.4-0.1-0.7-0.2-1-0.3
			c-0.3-0.1-0.7-0.3-1-0.5c-0.3-0.2-0.6-0.4-0.8-0.7c-0.3-0.3-0.5-0.5-0.7-0.8c-0.2-0.3-0.4-0.6-0.5-1c-0.1-0.3-0.3-0.7-0.3-1
			c0-0.1,0-0.1,0-0.2h13v-0.9c0-0.5-0.1-1-0.2-1.5C81.3,14.1,81.2,13.6,81,13.2z M68.6,15.2c0-0.1,0-0.1,0-0.2
			c0.1-0.4,0.2-0.7,0.3-1.1c0.1-0.3,0.3-0.7,0.5-1c0.2-0.3,0.4-0.6,0.7-0.8c0.3-0.3,0.5-0.5,0.8-0.7c0.3-0.2,0.6-0.4,1-0.5
			c0.3-0.1,0.7-0.3,1.1-0.3c0.7-0.2,1.5-0.2,2.3,0c0.4,0.1,0.7,0.2,1.1,0.3c0.3,0.1,0.7,0.3,1,0.5c0.3,0.2,0.6,0.4,0.8,0.7
			c0.3,0.3,0.5,0.5,0.7,0.8c0.2,0.3,0.4,0.6,0.5,1c0.1,0.3,0.3,0.7,0.3,1.1c0,0.1,0,0.1,0,0.2H68.6z"/>
		<polygon class="st0" points="16.2,5.7 16.2,3.9 1.1,3.9 1.1,5.7 7.7,5.7 7.7,23.5 9.5,23.5 9.5,5.7 		"/>
		<polygon class="st0" points="96.9,8.8 96.9,8.9 91.5,14.2 86,8.9 86,8.8 84.2,8.8 84.2,23.5 86,23.5 86,11.4 91.5,16.8 96.9,11.4 
			96.9,23.5 98.8,23.5 98.8,8.8 		"/>
		<path class="st0" d="M27.3,11.3c-1.4-1.6-3.4-2.7-5.7-2.7c-4.1,0-7.4,3.3-7.4,7.4s3.3,7.4,7.4,7.4c2.3,0,4.4-1.1,5.7-2.7v2.7h1.8
			V8.8h-1.8V11.3z M27.2,16c0,3.1-2.5,5.6-5.6,5.6c-3.1,0-5.6-2.5-5.6-5.6c0-3.1,2.5-5.6,5.6-5.6C24.7,10.4,27.2,13,27.2,16z"/>
		<path class="st0" d="M64,9.6c0-0.5-0.1-1-0.2-1.5c-0.1-0.5-0.2-0.9-0.4-1.4c-0.2-0.4-0.4-0.9-0.7-1.3c-0.3-0.4-0.6-0.8-0.9-1.1
			c-0.3-0.3-0.7-0.6-1.1-0.9c-0.4-0.3-0.8-0.5-1.3-0.7c-0.4-0.2-0.9-0.3-1.4-0.4c-0.5-0.1-1-0.2-1.5-0.2h-0.9V0.5h-1.7v5.2h1.7V4
			h0.9c0.4,0,0.8,0,1.1,0.1c0.4,0.1,0.7,0.2,1.1,0.3c0.3,0.1,0.7,0.3,1,0.5c0.3,0.2,0.6,0.4,0.8,0.7c0.3,0.3,0.5,0.5,0.7,0.8
			c0.2,0.3,0.4,0.6,0.5,1c0.1,0.3,0.3,0.7,0.3,1.1c0.1,0.4,0.1,0.8,0.1,1.1v1.6c-1.4-1.6-3.4-2.6-5.6-2.6c-4.1,0-7.4,3.3-7.4,7.4
			c0,4.1,3.3,7.4,7.4,7.4S64,20.1,64,16c0-0.1,0-0.2,0-0.3h0V9.6z M56.6,21.7c-3.1,0-5.6-2.5-5.6-5.6c0-3.1,2.5-5.6,5.6-5.6
			c3.1,0,5.6,2.5,5.6,5.6C62.2,19.1,59.7,21.7,56.6,21.7z"/>
		<g>
			<polygon class="st1" points="32.1,6 33.8,6 33.8,20.2 35.6,20.2 35.6,6 37.3,6 37.3,4.2 32.1,4.2 			"/>
			<polygon class="st1" points="46.7,4.2 41.5,4.2 41.5,6 43.2,6 43.2,20.2 45,20.2 45,6 46.7,6 			"/>
		</g>
		<path class="st1" d="M56.6,14.9c-0.5,0-0.9,0.3-1,0.7H22.7c-0.1-0.4-0.6-0.8-1-0.8c-0.6,0-1.1,0.5-1.1,1.1c0,0.6,0.5,1.1,1.1,1.1
			c0.4,0,0.8-0.3,1-0.7h32.9c0.2,0.4,0.6,0.7,1,0.7c0.6,0,1.1-0.5,1.1-1.1C57.7,15.4,57.2,14.9,56.6,14.9z"/>
		<g>
			<path class="st1" d="M11.2,33.5c0,1.6-1.4,3-3.2,3c-0.7,0-1.4-0.3-1.9-0.7l0.8-1.1c0.3,0.3,0.7,0.4,1.2,0.4
				c0.7,0,1.3-0.4,1.6-0.9H7.6v-1.3h1.9C9.3,32.3,8.7,32,8,32c-0.4,0-0.8,0.1-1.2,0.4l-0.8-1.1c0.6-0.4,1.2-0.7,1.9-0.7
				C9.8,30.6,11.2,31.9,11.2,33.5z"/>
			<path class="st1" d="M17.6,36.4L16,33.9v2.5h-1.6v-5.7H16v2.4l1.3-2.4h1.8l-1.6,2.8l1.9,2.9H17.6z"/>
			<path class="st1" d="M26.2,34.7l0.8,1.1c-0.6,0.4-1.2,0.7-1.9,0.7c-1.8,0-3.2-1.3-3.2-3c0-1.6,1.4-3,3.2-3c0.7,0,1.4,0.3,1.9,0.7
				l-0.8,1.1C25.8,32.1,25.5,32,25,32c-1,0-1.7,0.7-1.7,1.6c0,0.9,0.7,1.6,1.7,1.6C25.5,35.1,25.8,34.9,26.2,34.7z"/>
			<path class="st1" d="M35.2,30.7v5.7h-1.6V32h-1.9v4.4h-1.6v-5.7H35.2z"/>
			<path class="st1" d="M43.5,35.1v1.3h-4.2v-5.7h4.1V32h-2.6v0.9h2.3v1.3h-2.3v0.9H43.5z"/>
			<path class="st1" d="M52,32.7c0,1.1-0.8,2-2.2,2H49v1.6h-1.6v-5.7h2.3C51.2,30.7,52,31.6,52,32.7z M50.6,32.7
				c0-0.4-0.2-0.7-0.9-0.7H49v1.4h0.7C50.4,33.4,50.6,33.1,50.6,32.7z"/>
			<path class="st1" d="M59.6,32h-1.7v4.4h-1.6V32h-1.7v-1.3h4.9V32z"/>
			<path class="st1" d="M65.6,34.1h-3.4V33h3.4V34.1z"/>
			<path class="st1" d="M72.3,36.4l-1.6-2.5v2.5h-1.6v-5.7h1.6v2.4l1.3-2.4h1.8l-1.6,2.8l1.9,2.9H72.3z"/>
			<path class="st1" d="M82.7,30.7v5.7h-1.6V32h-1.2c0,1-0.1,2.1-0.1,2.6c-0.1,1.2-0.6,1.9-1.4,1.9c-0.8,0-1.3-0.3-1.3-0.3l0.4-1.1
				c0.4,0.2,0.8,0.2,0.9-0.8c0-0.8,0.1-3.6,0.1-3.6H82.7z"/>
			<path class="st1" d="M91.6,30.7c0,0-0.9,2.1-1.3,2.9c-0.3,0.7-1.1,2.8-2.6,2.9c-0.7,0.1-1.2-0.4-1.2-0.4l0.4-1.1
				c0.6,0.3,1,0.2,1.3-0.5l-2.1-3.9H88l1.1,2.4l0.8-2.4H91.6z"/>
			<path class="st1" d="M98.9,34.6c0,1-0.7,1.8-2.2,1.8h-2.5v-5.7h4V32h-2.4v0.8h0.9C98.2,32.8,98.9,33.6,98.9,34.6z M97.5,34.6
				c0-0.3-0.2-0.5-0.6-0.5h-1v1h1C97.3,35.1,97.5,34.8,97.5,34.6z"/>
		</g>
	</g>
</g>
</svg>
