<?xml version="1.0" encoding="utf-8"?>
<!-- Generator: Adobe Illustrator 21.1.0, SVG Export Plug-In . SVG Version: 6.00 Build 0)  -->
<svg version="1.1" id="Layer_1" xmlns="http://www.w3.org/2000/svg" xmlns:xlink="http://www.w3.org/1999/xlink" x="0px" y="0px"
	 viewBox="0 0 24 24" style="enable-background:new 0 0 24 24;" xml:space="preserve">
<style type="text/css">
	.st0{fill:#AA8C6E;}
	.st1{fill:#E6E6E6;}
</style>
<g>
	<path class="st1" d="M18.6,13.3h-0.7c-1.3,0-2.5-0.9-2.9-2.2c-0.1-0.2-0.3-0.4-0.5-0.4h-1.9V5.6h3c0.3,0,0.5-0.2,0.5-0.5V3.4
		c0-0.3-0.2-0.5-0.5-0.5s-0.5,0.2-0.5,0.5v1.2H8.9V3.4c0-0.3-0.2-0.5-0.5-0.5S7.9,3.1,7.9,3.4v1.7c0,0.3,0.2,0.5,0.5,0.5h3.2v5.2
		H9.5c-0.2,0-0.4,0.1-0.5,0.4c-0.4,1.3-1.6,2.2-2.9,2.2H5.4c-0.3,0-0.5,0.2-0.5,0.5v9c0,0.3,0.2,0.5,0.5,0.5h13.1
		c0.3,0,0.5-0.2,0.5-0.5v-9C19.1,13.5,18.8,13.3,18.6,13.3z M18.1,22.3H5.9v-8h0.2c1.7,0,3.1-1,3.8-2.5h4.3c0.6,1.5,2.1,2.5,3.8,2.5
		h0.2V22.3z"/>
	<path class="st1" d="M20.5,4.1V1.2c0-0.3-0.2-0.5-0.5-0.5H4c-0.3,0-0.5,0.2-0.5,0.5v2.9C2.3,4.3,1.3,5.4,1.3,6.7v1.2
		c0,0.3,0.2,0.5,0.5,0.5H6c0.3,0,0.5-0.2,0.5-0.5V6.7c0-1.2-0.9-2.3-2.1-2.6V1.7h15v2.4c-1.2,0.3-2.1,1.3-2.1,2.6v1.2
		c0,0.3,0.2,0.5,0.5,0.5h4.2c0.3,0,0.5-0.2,0.5-0.5V6.7C22.7,5.4,21.7,4.3,20.5,4.1z M5.5,6.7v0.7H2.3V6.7C2.3,5.8,3,5,3.9,5
		S5.5,5.8,5.5,6.7z M21.7,7.4h-3.2V6.7c0-0.9,0.7-1.6,1.6-1.6s1.6,0.7,1.6,1.6V7.4z"/>
	<path class="st1" d="M12,13.7c-1.9,0-3.5,1.6-3.5,3.5s1.6,3.5,3.5,3.5s3.5-1.6,3.5-3.5S13.9,13.7,12,13.7z M12,19.7
		c-1.4,0-2.5-1.1-2.5-2.5s1.1-2.5,2.5-2.5s2.5,1.1,2.5,2.5S13.4,19.7,12,19.7z"/>
</g>
</svg>
