<?xml version="1.0" encoding="utf-8"?>
<!-- Generator: Adobe Illustrator 21.1.0, SVG Export Plug-In . SVG Version: 6.00 Build 0)  -->
<svg version="1.1" id="Layer_1" xmlns="http://www.w3.org/2000/svg" xmlns:xlink="http://www.w3.org/1999/xlink" x="0px" y="0px"
	 viewBox="0 0 102 39" style="enable-background:new 0 0 102 39;" xml:space="preserve">
<style type="text/css">
	.st0{fill:#E6E6E6;}
	.st1{fill:#AA8C6E;}
</style>
<g>
	<g>
		<path class="st0" d="M82.6,14c-0.2-0.5-0.4-0.9-0.7-1.3c-0.3-0.4-0.6-0.8-0.9-1.1c-0.3-0.3-0.7-0.7-1.1-0.9
			c-0.4-0.3-0.8-0.5-1.3-0.7c-0.5-0.2-0.9-0.3-1.4-0.4c-1-0.2-2.1-0.2-3.1,0c-0.5,0.1-1,0.2-1.4,0.4c-0.4,0.2-0.9,0.4-1.3,0.7
			c-0.4,0.3-0.8,0.6-1.1,0.9c-0.3,0.3-0.7,0.7-0.9,1.1c-0.3,0.4-0.5,0.8-0.7,1.3c-0.2,0.5-0.3,0.9-0.4,1.4c-0.1,0.5-0.2,1-0.2,1.5
			c0,0.5,0.1,1,0.2,1.5c0.1,0.5,0.2,1,0.4,1.4c0.2,0.5,0.4,0.9,0.7,1.3c0.3,0.4,0.6,0.8,0.9,1.1c0.3,0.3,0.7,0.7,1.1,0.9
			c0.4,0.3,0.8,0.5,1.3,0.7c0.5,0.2,0.9,0.3,1.4,0.4c0.5,0.1,1,0.2,1.5,0.2c0.5,0,1-0.1,1.5-0.2c0.5-0.1,1-0.2,1.4-0.4
			c0.4-0.2,0.9-0.4,1.3-0.7c0.4-0.3,0.8-0.6,1.1-0.9c0.3-0.3,0.7-0.7,0.9-1.1l0.1-0.2l-1.5-1l-0.1,0.2c-0.2,0.3-0.4,0.6-0.7,0.9
			c-0.3,0.3-0.5,0.5-0.8,0.7c-0.3,0.2-0.6,0.4-1,0.5c-0.3,0.1-0.7,0.3-1.1,0.3c-0.8,0.2-1.6,0.2-2.3,0c-0.4-0.1-0.7-0.2-1.1-0.3
			c-0.3-0.1-0.7-0.3-1-0.5c-0.3-0.2-0.6-0.4-0.8-0.7c-0.3-0.3-0.5-0.5-0.7-0.9c-0.2-0.3-0.4-0.6-0.5-1c-0.1-0.3-0.3-0.7-0.3-1.1
			c0-0.1,0-0.2,0-0.2h13.2V17c0-0.5-0.1-1-0.2-1.5C83,15,82.8,14.5,82.6,14z M70,16.1c0-0.1,0-0.2,0-0.2c0.1-0.4,0.2-0.7,0.3-1.1
			c0.1-0.3,0.3-0.7,0.5-1c0.2-0.3,0.4-0.6,0.7-0.9c0.3-0.3,0.5-0.5,0.8-0.7c0.3-0.2,0.6-0.4,1-0.5c0.3-0.1,0.7-0.3,1.1-0.3
			c0.8-0.2,1.6-0.2,2.3,0c0.4,0.1,0.7,0.2,1.1,0.3c0.3,0.1,0.7,0.3,1,0.5c0.3,0.2,0.6,0.4,0.8,0.7c0.3,0.3,0.5,0.5,0.7,0.9
			c0.2,0.3,0.4,0.6,0.5,1c0.1,0.3,0.3,0.7,0.3,1.1c0,0.1,0,0.2,0,0.2H70z"/>
		<polygon class="st0" points="16.4,6.3 16.4,4.5 1,4.5 1,6.3 7.8,6.3 7.8,24.6 9.6,24.6 9.6,6.3 		"/>
		<polygon class="st0" points="98.9,9.6 98.9,9.6 93.4,15.1 87.8,9.6 87.8,9.6 86,9.6 86,24.6 87.8,24.6 87.8,12.2 93.4,17.8 
			98.9,12.2 98.9,24.6 100.8,24.6 100.8,9.6 		"/>
		<path class="st0" d="M27.9,12.1c-1.4-1.7-3.5-2.8-5.8-2.8c-4.2,0-7.6,3.4-7.6,7.6s3.4,7.6,7.6,7.6c2.4,0,4.5-1.1,5.8-2.8v2.7h1.9
			v-15h-1.9V12.1z M27.7,17c0,3.2-2.6,5.8-5.7,5.8c-3.2,0-5.7-2.6-5.7-5.8c0-3.2,2.6-5.8,5.7-5.8C25.2,11.2,27.7,13.8,27.7,17z"/>
		<path class="st0" d="M65.3,10.4c0-0.5-0.1-1-0.2-1.5c-0.1-0.5-0.2-1-0.4-1.4c-0.2-0.5-0.4-0.9-0.7-1.3c-0.3-0.4-0.6-0.8-0.9-1.1
			C62.7,4.6,62.4,4.3,62,4c-0.4-0.3-0.8-0.5-1.3-0.7c-0.5-0.2-0.9-0.3-1.4-0.4c-0.5-0.1-1-0.2-1.5-0.2h-0.9V1H55v5.3h1.8V4.6h0.9
			c0.4,0,0.8,0,1.2,0.1c0.4,0.1,0.7,0.2,1.1,0.3c0.3,0.1,0.7,0.3,1,0.5c0.3,0.2,0.6,0.4,0.8,0.7c0.3,0.3,0.5,0.5,0.7,0.9
			c0.2,0.3,0.4,0.6,0.5,1c0.1,0.3,0.3,0.7,0.3,1.1c0.1,0.4,0.1,0.8,0.1,1.2V12c-1.4-1.6-3.4-2.6-5.7-2.6c-4.2,0-7.6,3.4-7.6,7.6
			c0,4.2,3.4,7.6,7.6,7.6s7.6-3.4,7.6-7.6c0-0.1,0-0.2,0-0.3h0V10.4z M57.7,22.7c-3.2,0-5.7-2.6-5.7-5.8c0-3.2,2.6-5.8,5.7-5.8
			c3.2,0,5.7,2.6,5.7,5.8C63.4,20.2,60.9,22.7,57.7,22.7z"/>
		<g>
			<polygon class="st0" points="32.7,6.7 34.4,6.7 34.4,21.3 36.3,21.3 36.3,6.7 38,6.7 38,4.8 32.7,4.8 			"/>
			<polygon class="st0" points="47.6,4.8 42.3,4.8 42.3,6.7 44.1,6.7 44.1,21.3 45.9,21.3 45.9,6.7 47.6,6.7 			"/>
		</g>
		<path class="st0" d="M57.7,15.8c-0.5,0-0.9,0.3-1.1,0.7H23.1c-0.2-0.5-0.6-0.8-1.1-0.8c-0.6,0-1.1,0.5-1.1,1.1
			c0,0.6,0.5,1.1,1.1,1.1c0.5,0,0.9-0.3,1-0.7h33.6c0.2,0.4,0.6,0.7,1.1,0.7c0.6,0,1.1-0.5,1.1-1.1S58.3,15.8,57.7,15.8z"/>
		<g>
			<path class="st0" d="M11.4,34.9c0,1.7-1.4,3-3.3,3c-0.7,0-1.4-0.3-2-0.7l0.8-1.1c0.4,0.3,0.8,0.4,1.2,0.4c0.7,0,1.3-0.4,1.6-0.9
				h-2v-1.4h2c-0.3-0.6-0.9-0.9-1.6-0.9c-0.4,0-0.8,0.1-1.2,0.4l-0.8-1.1c0.6-0.5,1.2-0.7,2-0.7C10,31.9,11.4,33.3,11.4,34.9z"/>
			<path class="st0" d="M17.9,37.9l-1.6-2.6v2.6h-1.6V32h1.6v2.4l1.4-2.4h1.9l-1.7,2.8l1.9,3H17.9z"/>
			<path class="st0" d="M26.7,36.1l0.8,1.1c-0.6,0.5-1.2,0.7-2,0.7c-1.9,0-3.3-1.4-3.3-3c0-1.7,1.4-3.1,3.3-3.1c0.7,0,1.4,0.3,2,0.7
				l-0.8,1.1c-0.4-0.3-0.8-0.4-1.2-0.4c-1,0-1.8,0.7-1.8,1.6c0,0.9,0.8,1.6,1.8,1.6C25.9,36.6,26.3,36.4,26.7,36.1z"/>
			<path class="st0" d="M35.9,32v5.8h-1.6v-4.5h-1.9v4.5h-1.6V32H35.9z"/>
			<path class="st0" d="M44.4,36.5v1.4H40V32h4.2v1.4h-2.6v0.9H44v1.4h-2.4v0.9H44.4z"/>
			<path class="st0" d="M53.1,34.1c0,1.1-0.9,2.1-2.3,2.1H50v1.7h-1.6V32h2.4C52.2,32,53.1,33,53.1,34.1z M51.6,34.1
				c0-0.4-0.2-0.7-0.9-0.7H50v1.4h0.7C51.4,34.8,51.6,34.5,51.6,34.1z"/>
			<path class="st0" d="M60.8,33.4h-1.7v4.5h-1.6v-4.5h-1.7V32h5V33.4z"/>
			<path class="st0" d="M66.9,35.5h-3.5v-1.2h3.5V35.5z"/>
			<path class="st0" d="M73.8,37.9l-1.6-2.6v2.6h-1.6V32h1.6v2.4l1.4-2.4h1.9l-1.7,2.8l1.9,3H73.8z"/>
			<path class="st0" d="M84.4,32v5.8h-1.6v-4.5h-1.2c0,1-0.1,2.2-0.1,2.7C81.4,37.4,80.8,38,80,38c-0.8,0-1.3-0.4-1.3-0.4l0.4-1.2
				c0.5,0.2,0.8,0.2,0.9-0.8c0-0.8,0.1-3.7,0.1-3.7H84.4z"/>
			<path class="st0" d="M93.5,32c0,0-0.9,2.1-1.3,3c-0.3,0.7-1.1,2.8-2.6,3c-0.7,0.1-1.2-0.4-1.2-0.4l0.5-1.1c0.6,0.3,1,0.2,1.4-0.5
				l-2.1-4h1.7l1.1,2.5l0.9-2.5H93.5z"/>
			<path class="st0" d="M101,36c0,1-0.7,1.8-2.2,1.8h-2.5V32h4v1.4h-2.5v0.8h0.9C100.2,34.2,101,35,101,36z M99.5,36
				c0-0.3-0.2-0.5-0.6-0.5h-1.1v1h1.1C99.3,36.5,99.5,36.3,99.5,36z"/>
		</g>
	</g>
</g>
</svg>
